# xmcd
#
# Track frame offsets: 
#        150
#        14817
#        30709
#        43612
#        57790
#        72861
#        89769
#        105479
#        119571
#        136728
#        153315
#        169281
#        189155
#
# Disc length: 2715 seconds
#
# Revision: 0
# Processed by: cddbd v1.5.2PL0 Copyright (c) Steve Scherf et al.
# Submitted via: ExactAudioCopyFreeDBPlugin 1.0
#
DISCID=af0a990d
DTITLE=Austin, Sherrié - Circus Girl
DYEAR=2011
DGENRE=Country
TTITLE0=Circus Girl
TTITLE1=Tryin' To Be Me
TTITLE2=I Didn't
TTITLE3=If I Was A Man
TTITLE4=Just Want To Love You Tonight
TTITLE5=Get Your Leavin' Done
TTITLE6=He's All Yours
TTITLE7=Bad For Me
TTITLE8=Friday Night Girls
TTITLE9=Sleep With Me
TTITLE10=That Kind Of Happy
TTITLE11=Streets Of Heaven
TTITLE12=Naughty Or Nice
EXTD=
EXTT0=
EXTT1=
EXTT2=
EXTT3=
EXTT4=
EXTT5=
EXTT6=
EXTT7=
EXTT8=
EXTT9=
EXTT10=
EXTT11=
EXTT12=
PLAYORDER=
